<?xml version="1.0" encoding="UTF-8" standalone="no"?>
<!-- Created with Inkscape (http://www.inkscape.org/) -->

<svg
   xmlns:dc="http://purl.org/dc/elements/1.1/"
   xmlns:cc="http://creativecommons.org/ns#"
   xmlns:rdf="http://www.w3.org/1999/02/22-rdf-syntax-ns#"
   xmlns:svg="http://www.w3.org/2000/svg"
   xmlns="http://www.w3.org/2000/svg"
   xmlns:sodipodi="http://sodipodi.sourceforge.net/DTD/sodipodi-0.dtd"
   xmlns:inkscape="http://www.inkscape.org/namespaces/inkscape"
   width="64"
   height="96"
   viewBox="0 0 64.000001 96"
   id="svg2"
   version="1.1"
   inkscape:version="0.91 r"
   inkscape:export-filename="/media/nicholas/Seagate Backup Plus Drive/LuxAndLucid/videoMix/component/controls/assets/iris-logo.png"
   inkscape:export-xdpi="90"
   inkscape:export-ydpi="90"
   sodipodi:docname="logo_2.svg">
  <defs
     id="defs4" />
  <sodipodi:namedview
     id="base"
     pagecolor="#000000"
     bordercolor="#666666"
     borderopacity="1.0"
     inkscape:pageopacity="0"
     inkscape:pageshadow="2"
     inkscape:zoom="2.8284271"
     inkscape:cx="-29.768288"
     inkscape:cy="59.719753"
     inkscape:document-units="px"
     inkscape:current-layer="layer1"
     showgrid="false"
     units="px"
     inkscape:window-width="1321"
     inkscape:window-height="744"
     inkscape:window-x="45"
     inkscape:window-y="24"
     inkscape:window-maximized="1" />
  <metadata
     id="metadata7">
    <rdf:RDF>
      <cc:Work
         rdf:about="">
        <dc:format>image/svg+xml</dc:format>
        <dc:type
           rdf:resource="http://purl.org/dc/dcmitype/StillImage" />
        <dc:title></dc:title>
      </cc:Work>
    </rdf:RDF>
  </metadata>
  <g
     inkscape:label="Layer 1"
     inkscape:groupmode="layer"
     id="layer1"
     transform="translate(0,-956.36216)">
    <path
       sodipodi:nodetypes="ccscsscsscssccscsscsscsscsscsscsscsscsscsscsscsscccccc"
       inkscape:connector-curvature="0"
       id="path8146"
       d="m 31.987124,963.7646 c 0,0 -0.656013,2.14575 -0.64227,3.2496 0.01949,1.56236 1.188843,3.02031 1.02317,4.57399 -0.284526,2.66819 -3.375506,7.30722 -3.375506,7.30722 0,0 -2.02699,-2.05496 -3.276694,-2.73483 -1.453282,-0.79062 -3.218647,-0.82405 -4.741327,-1.47101 -1.164001,-0.49457 -3.324505,-1.82799 -3.324505,-1.82799 0,0 1.165407,2.81342 2.199337,3.8823 0.864486,0.89371 2.385369,0.99181 3.182665,1.94594 1.018425,1.21875 1.724408,4.44168 1.724408,4.44168 0,0 -2.846395,-0.4518 -4.247271,-0.2311 -2.029088,0.3197 -3.77991,1.6405 -5.75334,2.2105 -1.674825,0.4838 -4.750889,-0.1227 -4.750889,-0.1227 0,0 3.423564,2.1162 5.370846,2.2758 1.551836,0.1273 3.139218,-0.435 4.669609,-0.1482 1.677702,0.3145 4.711045,2.0049 4.711045,2.0049 0,0 -1.771351,1.1382 -2.286992,2.0129 -0.790486,1.341 -0.390546,3.1293 -1.000858,4.5613 -0.771093,1.8092 -3.281476,4.9022 -3.281476,4.9022 0,0 2.903819,-1.7245 4.191492,-2.8065 1.059875,-0.8906 1.718905,-2.2347 2.871889,-3.001 1.112373,-0.7392 3.742061,-1.4328 3.742061,-1.4328 0,0 0.167139,3.2826 0.425525,4.8402 0.305491,1.8415 1.561597,1.9728 2.215274,3.7213 0.668846,1.7891 -0.215153,6.0004 -0.215153,6.0004 0,0 2.241925,-3.8046 2.35393,-5.5621 0.111495,-1.7494 -0.130591,-2.3892 0.210372,-4.1086 0.340109,-1.7151 0.999264,-4.8911 0.999264,-4.8911 0,0 0.830541,2.0409 1.681377,2.6487 1.246406,0.8905 3.065642,0.4581 4.468799,1.0726 1.710719,0.7492 4.655266,3.1173 4.655266,3.1173 0,0 -1.803969,-2.9359 -2.868702,-4.2855 -0.847289,-1.074 -2.138046,-1.808 -2.784234,-3.0137 -0.61151,-1.1411 -0.916391,-3.7756 -0.916391,-3.7756 0,0 3.359108,1.8067 5.128601,1.5587 2.258168,-0.3165 3.634668,-2.8552 5.748559,-3.7102 1.340094,-0.542 4.253647,-0.8431 4.253647,-0.8431 0,0 -2.536822,-0.7637 -3.842466,-0.7602 -1.910964,0 -3.733845,1.4628 -5.617874,1.1427 -2.168906,-0.3684 -5.670467,-3.3771 -5.670467,-3.3771 0,0 2.589964,-1.8416 3.345225,-3.18264 0.849018,-1.50751 0.432564,-3.47956 1.110825,-5.07123 0.591121,-1.38717 2.516489,-3.758 2.516489,-3.758 0,0 -2.205535,1.1872 -3.079073,2.06069 -1.242677,1.24261 -1.499769,3.36568 -2.934044,4.38114 -1.459164,1.03308 -5.195537,1.33395 -5.195537,1.33395 0,0 0.965337,-4.84723 0.403212,-7.17653 -0.426419,-1.76698 -2.110849,-3.00675 -2.755547,-4.70627 -0.391393,-1.03178 -0.642271,-3.24801 -0.642271,-3.24801 z m 0,15.23121 c 3.938363,-3.4e-4 7.131369,3.19199 7.13191,7.13029 3.43e-4,3.939 -3.192922,7.1323 -7.13191,7.1319 -3.938988,4e-4 -7.132253,-3.1929 -7.13191,-7.1319 5.41e-4,-3.9383 3.193547,-7.13063 7.13191,-7.13029 z"
       style="color:#000000;clip-rule:nonzero;display:inline;overflow:visible;visibility:visible;opacity:1;isolation:auto;mix-blend-mode:normal;color-interpolation:sRGB;color-interpolation-filters:linearRGB;solid-color:#000000;solid-opacity:1;fill:#ffffff;fill-opacity:0.55657492;fill-rule:nonzero;stroke:none;stroke-width:1;stroke-linecap:butt;stroke-linejoin:round;stroke-miterlimit:4;stroke-dasharray:none;stroke-dashoffset:0;stroke-opacity:1;color-rendering:auto;image-rendering:auto;shape-rendering:auto;text-rendering:auto;enable-background:accumulate" />
    <circle
       style="color:#000000;clip-rule:nonzero;display:inline;overflow:visible;visibility:visible;opacity:1;isolation:auto;mix-blend-mode:normal;color-interpolation:sRGB;color-interpolation-filters:linearRGB;solid-color:#000000;solid-opacity:1;fill:#ffffff;fill-opacity:0.87767585;fill-rule:nonzero;stroke:none;stroke-width:0.8918919;stroke-linecap:butt;stroke-linejoin:round;stroke-miterlimit:4;stroke-dasharray:none;stroke-dashoffset:0;stroke-opacity:1;color-rendering:auto;image-rendering:auto;shape-rendering:auto;text-rendering:auto;enable-background:accumulate"
       id="path8144-5"
       cx="32"
       cy="986.12653"
       r="5.4724512" />
    <text
       xml:space="preserve"
       style="font-style:normal;font-variant:normal;font-weight:normal;font-stretch:normal;font-size:10.22538471px;line-height:125%;font-family:FreeSerif;-inkscape-font-specification:FreeSerif;letter-spacing:0px;word-spacing:0px;fill:#ffffff;fill-opacity:0.57492359;stroke:none;stroke-width:1px;stroke-linecap:butt;stroke-linejoin:miter;stroke-opacity:1"
       x="7.4276218"
       y="1045.8862"
       id="text4136"
       sodipodi:linespacing="125%"><tspan
         sodipodi:role="line"
         x="7.4276218"
         y="1045.8862"
         id="tspan8333"
         style="font-style:normal;font-variant:normal;font-weight:normal;font-stretch:normal;font-family:Pacifico;-inkscape-font-specification:Pacifico;fill:#ffffff;fill-opacity:0.57492359">Lux &amp; Lucid</tspan></text>
    <text
       xml:space="preserve"
       style="font-style:normal;font-variant:normal;font-weight:normal;font-stretch:normal;font-size:18.30708885px;line-height:125%;font-family:'Ubuntu Condensed';-inkscape-font-specification:'Ubuntu Condensed, ';letter-spacing:0px;word-spacing:0px;fill:#ffffff;fill-opacity:0.81960784;stroke:none;stroke-width:1px;stroke-linecap:butt;stroke-linejoin:miter;stroke-opacity:1"
       x="6.4299674"
       y="1031.9033"
       id="text4136-3"
       sodipodi:linespacing="125%"><tspan
         sodipodi:role="line"
         id="tspan4138-6"
         x="6.4299674"
         y="1031.9033"
         style="font-style:normal;font-variant:normal;font-weight:normal;font-stretch:normal;font-family:Pacifico;-inkscape-font-specification:Pacifico;fill:#ffffff;fill-opacity:0.81960784">solaire</tspan></text>
    <g
       id="g8148-1-0"
       transform="matrix(15.816818,0,0,15.816818,-1054.8093,-13496.181)"
       style="opacity:0.35700001;fill:#f9ff88;fill-opacity:0.81957188" />
  </g>
</svg>
